<svg xmlns="http://www.w3.org/2000/svg" width="67" height="39" fill="none"><path fill="#0B7572" d="m21.756 30.356 20.58 8.6V18.008l-20.58-7.644v19.992ZM58.139 19.404l-5.733 2.058v-5.806l-7.57 2.646v20.653l21.314-8.6V10.732l-8.011 2.867v5.806Zm-6.836 14.847-.882.368v-4.63l.882-.295v4.557Zm1.544-.588-.882.368V29.4l.882-.295v4.557Zm3.087-1.25-.882.295V28.15l.882-.294v4.557Zm1.543-.66-.882.367v-4.484l.882-.294v4.41Zm3.087-5.66.883-.294v4.336l-.883.368v-4.41Zm-1.764.661.882-.294v4.41l-.882.368v-4.484ZM58.14 10.731l8.01-2.94L43.954 0l-7.129 2.499 21.315 8.085v.147ZM30.503 4.704l-8.747 3.087 22.197 8.085 8.38-3.013-21.83-8.159ZM0 28.445h18.228V24.77H1.691L0 28.445ZM3.014 21.977h15.214v-3.675H4.704l-1.69 3.675ZM6.027 15.288v.294h12.201v-3.675H7.644l-1.617 3.381Z"/></svg>