<svg xmlns="http://www.w3.org/2000/svg" width="47" height="50" fill="none"><path fill="#0B7572" d="M38.282 32.722H8.643a4.334 4.334 0 0 0-3.083-4.167V8.458a4.167 4.167 0 0 0 2.889-2.903h13.889a4.292 4.292 0 0 0 2.903 2.903v6.486l-2.598 2.611-1.389-1.388a1.22 1.22 0 0 0-1.736 0 1.236 1.236 0 0 0 0 1.75l1.39 1.388-1.39 1.39a1.236 1.236 0 0 0 .868 2.111 1.222 1.222 0 0 0 .869-.362l1.388-1.389 2.959 2.959a1.224 1.224 0 0 0 1.736 0l3.07-2.972 1.388 1.388a1.235 1.235 0 1 0 1.736-1.75l-1.389-1.388 1.39-1.39a1.236 1.236 0 0 0-1.339-2.017 1.22 1.22 0 0 0-.398.268l-1.389 1.389-2.583-2.598V8.458a4.32 4.32 0 1 0-5.375-5.375H8.56a4.32 4.32 0 1 0-5.472 5.375v20.125A4.334 4.334 0 0 0 .004 32.75v1.111a.347.347 0 0 0 0 .111v7.417a8.653 8.653 0 0 0 8.64 8.61h29.638a8.639 8.639 0 1 0 0-17.277Zm-9.722-13.43-2.028 2.097-2.07-2.097 2.07-2.084 2.028 2.084Zm9.722 25.764a3.71 3.71 0 1 1 3.695-3.695 3.694 3.694 0 0 1-3.695 3.695ZM4.95 41.36a3.708 3.708 0 1 1 7.416-.028 3.708 3.708 0 0 1-7.416.028Zm27.153 0a3.708 3.708 0 1 1-7.416 0 3.708 3.708 0 0 1 7.416 0Zm-9.875 0a3.71 3.71 0 1 1-7.418 0 3.71 3.71 0 0 1 7.418 0Z"/><path fill="#0B7572" d="M8.643 42.598a1.236 1.236 0 1 0 0-2.472 1.236 1.236 0 0 0 0 2.472ZM18.518 42.598a1.236 1.236 0 1 0 0-2.473 1.236 1.236 0 0 0 0 2.473ZM28.407 42.598a1.236 1.236 0 1 0 0-2.472 1.236 1.236 0 0 0 0 2.472ZM38.282 42.598a1.236 1.236 0 1 0 0-2.472 1.236 1.236 0 0 0 0 2.472Z"/></svg>